PathFileType	4	(X/Y/Z)	Kaydara	
DataRate	CameraRate	NumFrames	NumMarkers	Units	OrigDataRate	OrigDataStartFrame	OrigNumFrames	
60.00	60.00	4	74	mm	60.00	1516	181	
Frame#	Time	Z_lasi			Z_rasi			Z_rpsi			Z_lpsi			Z_fneck			Z_bneck			Z_fhead			Z_rhead			Z_lhead			Z_rshld			Z_relbtop			Z_relbext			Z_relblow			Z_rwrext			Z_rwrtop			Z_rwrlow			Z_lshld			Z_lelbext			Z_lelblow			Z_lelbtop			Z_lwrext			Z_lwrtop			Z_lwrlow			Z_rtopleg			Z_ltopleg			Z_rkneefr			Z_rkneebk			Z_rkneeis			Z_lkneefr			Z_lknssbk			Z_lkneeis			Z_rankfr			Z_rankis			Z_rankbk			Z_lankfr			Z_lankbk			Z_lankis			A_lasi			A_rasi			A_rpsi			A_lpsi			A_fneck			A_bneck			A_fhead			A_rhead			A_lhead			A_rshld			A_relbtop			A_relbext			A_relblow			A_rwrext			A_rwrtop			A_rwrlow			A_lshld			A_lelbext			A_lelblow			A_lelbtop			A_lwrext			A_lwrtop			A_lwrlow			A_rtopleg			A_ltopleg			A_rkneefr			A_rkneebk			A_rkneeis			A_lkneefr			A_lknssbk			A_lkneeis			A_rankfr			A_rankis			A_rankbk			A_lankfr			A_lankbk			A_lankis			
		X1	Y1	Z1	X2	Y2	Z2	X3	Y3	Z3	X4	Y4	Z4	X5	Y5	Z5	X6	Y6	Z6	X7	Y7	Z7	X8	Y8	Z8	X9	Y9	Z9	X10	Y10	Z10	X11	Y11	Z11	X12	Y12	Z12	X13	Y13	Z13	X14	Y14	Z14	X15	Y15	Z15	X16	Y16	Z16	X17	Y17	Z17	X18	Y18	Z18	X19	Y19	Z19	X20	Y20	Z20	X21	Y21	Z21	X22	Y22	Z22	X23	Y23	Z23	X24	Y24	Z24	X25	Y25	Z25	X26	Y26	Z26	X27	Y27	Z27	X28	Y28	Z28	X29	Y29	Z29	X30	Y30	Z30	X31	Y31	Z31	X32	Y32	Z32	X33	Y33	Z33	X34	Y34	Z34	X35	Y35	Z35	X36	Y36	Z36	X37	Y37	Z37	X38	Y38	Z38	X39	Y39	Z39	X40	Y40	Z40	X41	Y41	Z41	X42	Y42	Z42	X43	Y43	Z43	X44	Y44	Z44	X45	Y45	Z45	X46	Y46	Z46	X47	Y47	Z47	X48	Y48	Z48	X49	Y49	Z49	X50	Y50	Z50	X51	Y51	Z51	X52	Y52	Z52	X53	Y53	Z53	X54	Y54	Z54	X55	Y55	Z55	X56	Y56	Z56	X57	Y57	Z57	X58	Y58	Z58	X59	Y59	Z59	X60	Y60	Z60	X61	Y61	Z61	X62	Y62	Z62	X63	Y63	Z63	X64	Y64	Z64	X65	Y65	Z65	X66	Y66	Z66	X67	Y67	Z67	X68	Y68	Z68	X69	Y69	Z69	X70	Y70	Z70	X71	Y71	Z71	X72	Y72	Z72	X73	Y73	Z73	X74	Y74	Z74	

46	25.250	-250.42841	1052.99469	744.19212	-277.04243	1073.35388	538.27133	-94.78319	1111.36673	479.41147	-57.53370	1091.42387	721.60385	-249.34963	1441.62521	642.84714	-145.26975	1492.28302	695.78934	-246.22602	1674.27643	585.80791	-106.75137	1619.20380	662.01118	-227.55480	1622.76642	746.96594	-164.30376	1440.73624	461.78249	-108.67929	1126.88736	366.61835	-92.72296	1106.43875	422.47398	-181.16373	1133.87108	393.11024	-200.89537	898.73199	340.02663	-239.22640	910.13580	362.66552	-222.32731	902.31758	402.78736	-175.33550	1411.52542	858.71475	-130.84794	1093.83530	845.73463	-206.17018	1107.98965	896.18820	-139.90036	1107.17155	916.44859	-250.92974	848.03093	858.26004	-248.88220	839.13696	904.09821	-202.38663	837.90680	906.31050	-135.00426	919.01909	417.79434	-160.19072	881.11679	783.28117	-269.68796	424.40563	395.58571	-191.86409	460.23968	365.01492	-224.41446	432.03259	482.64095	-216.14447	435.82245	708.83690	-110.36541	461.36459	707.34161	-197.96675	437.69562	617.66975	-198.51545	189.50378	371.74297	-189.93528	181.39702	437.28325	-121.26376	188.46756	383.11993	-142.82954	153.44530	681.04195	-82.55084	164.33878	629.53300	-159.37612	169.82821	611.04584	-954.98848	1030.02563	486.20720	-946.81641	1036.56067	645.98793	-1107.61337	1038.45177	659.95575	-1078.34167	1042.44766	479.06422	-1019.21257	1381.49643	576.69136	-1157.25433	1405.69687	561.31397	-965.03410	1591.35864	599.65912	-1119.38873	1553.95233	665.87570	-1101.74255	1562.70706	502.68669	-1107.50359	1347.94693	750.35591	-1090.82291	1055.17532	783.35167	-1149.34456	1047.94060	755.43663	-1081.05339	1044.25499	728.55064	-1068.89305	809.02534	809.30717	-1025.31120	819.13567	801.47484	-1027.69455	818.83957	763.51349	-1052.16942	1353.79135	395.41580	-1082.71057	1043.94783	372.14149	-1016.01402	1050.85388	400.48466	-1037.97173	1049.86183	350.66010	-999.85886	821.58257	388.65704	-998.59116	824.92279	345.84087	-956.06796	832.61887	361.36284	-1059.07509	876.02867	741.61041	-1014.01131	890.19783	404.96243	-1022.21786	450.92396	654.40720	-1130.99609	488.44082	694.60052	-1105.66147	486.93501	577.29443	-1002.47902	462.09164	514.87751	-1086.84219	481.56818	419.58374	-1110.12390	479.64184	544.14883	-1100.09262	166.94866	674.91318	-1129.91310	164.34223	607.61311	-1181.32004	156.39043	674.49051	-1064.44290	166.85141	458.55545	-1125.39253	170.34262	423.28281	-1123.89442	174.06797	512.99953 
47	25.267	-250.82594	1053.31161	742.82394	-277.87775	1073.58849	537.00775	-95.65078	1111.58058	477.68776	-58.07740	1091.61171	719.85222	-249.92889	1441.84174	641.40907	-145.60835	1492.47757	693.87840	-247.31287	1674.53827	584.50798	-107.38272	1619.31686	659.91051	-227.64648	1622.92816	745.55435	-165.41922	1440.77148	459.98978	-110.19692	1126.82289	364.96304	-93.98975	1106.46484	420.68203	-182.29191	1133.70499	391.88011	-202.54543	898.76205	338.76137	-240.46211	910.03525	362.26448	-223.75156	902.28386	401.49960	-175.14894	1412.01630	856.94168	-131.12709	1094.19205	845.13519	-206.08154	1108.58383	895.41840	-139.94169	1107.94044	915.49767	-250.84293	848.54721	858.55438	-248.72841	839.76845	904.42848	-202.17361	838.54477	906.58943	-136.01295	919.21669	416.19453	-160.65298	881.33774	782.12669	-269.98547	424.62639	392.54333	-191.66309	460.72723	363.59158	-226.70023	432.63496	480.43892	-216.08219	435.95901	707.77771	-110.04956	461.72447	706.18362	-197.84683	437.77588	616.71822	-197.12261	189.99464	370.15953	-190.11349	181.88229	435.81562	-120.00227	189.50342	383.21960	-142.85688	153.53157	680.83633	-82.62751	164.30635	629.33846	-159.41095	169.82349	610.76221	-954.87389	1029.98230	486.22089	-946.94077	1036.61118	646.06010	-1107.84813	1038.53821	659.72191	-1078.20694	1042.44728	478.85601	-1019.09866	1381.52679	576.62758	-1157.14584	1405.05096	560.58643	-965.54443	1591.90521	600.98000	-1120.58815	1553.21228	665.09338	-1100.87120	1562.28531	502.33971	-1107.33444	1348.16635	750.01900	-1090.88219	1055.34500	783.17024	-1149.44580	1048.16612	755.33737	-1081.06400	1044.39804	728.56171	-1069.23561	809.27208	809.28337	-1025.56442	819.32304	801.41380	-1026.81564	818.14842	763.95340	-1051.75758	1353.76282	395.10292	-1082.42699	1043.96996	371.81614	-1015.80490	1050.82970	400.34416	-1037.69958	1049.85458	350.45040	-999.68185	821.52824	388.68462	-998.43361	824.86771	345.85503	-955.89378	832.51755	361.37535	-1059.36478	876.13571	741.54297	-1013.78510	890.16937	404.98116	-1022.26715	450.99106	654.50241	-1131.12289	488.48896	694.55551	-1105.59227	486.95438	577.23213	-1002.14058	462.04544	514.43108	-1086.90979	481.64360	419.60625	-1110.03464	479.69486	544.18221	-1100.13290	166.99360	674.98642	-1129.87503	164.38877	607.58759	-1181.33812	156.42927	674.45450	-1064.48654	166.88223	458.47397	-1125.46036	170.38036	423.31856	-1123.86169	174.13849	513.02177 
48	25.283	-251.58670	1053.66646	741.40862	-278.70045	1073.86719	535.60879	-96.62453	1111.72409	475.87521	-58.70849	1091.81633	717.99042	-250.54764	1442.03217	639.76089	-146.00396	1492.69775	691.83655	-248.07505	1674.85489	582.93350	-107.82727	1619.46747	657.56210	-227.63367	1623.06000	743.80424	-166.50337	1440.83618	458.05542	-111.73831	1126.79039	363.15979	-95.38469	1106.44028	418.88226	-183.81620	1133.78700	390.32932	-204.32446	898.80600	337.34074	-241.99457	910.10056	360.96203	-225.18341	902.28935	400.22118	-175.07814	1412.57263	855.07439	-131.27371	1094.67873	844.30351	-206.02861	1109.41864	894.65714	-139.76142	1108.66638	914.41727	-251.06995	849.22081	858.78952	-248.83089	840.63263	904.73389	-202.16663	839.36615	906.44478	-137.08494	919.38522	414.53362	-161.25532	881.65756	780.53612	-270.42730	424.69002	389.64230	-191.65108	461.17031	362.03014	-228.05283	432.88738	477.98721	-215.54358	436.17218	706.76643	-109.58445	462.07962	705.09155	-197.47963	437.81624	615.77370	-195.65155	190.49870	368.60985	-189.75796	182.23143	434.41601	-118.90316	190.30010	383.25157	-142.78862	153.66037	680.61859	-82.93241	164.08880	629.49165	-159.24992	169.83315	610.49057	-954.74266	1029.99199	486.35906	-947.12952	1036.68938	646.17310	-1108.15346	1038.66486	659.40727	-1078.05367	1042.43744	478.60775	-1018.88779	1381.59027	576.55720	-1157.00615	1404.42902	559.80766	-966.33820	1592.28790	602.27875	-1122.64198	1552.49069	664.53186	-1100.01610	1562.15576	501.68949	-1107.29355	1348.38623	749.64134	-1091.10046	1055.64941	782.94052	-1149.56673	1048.40607	755.16312	-1081.13388	1044.59747	728.52875	-1069.53468	809.55040	809.25201	-1025.91278	819.51241	801.35078	-1027.13921	818.38226	763.90617	-1051.20430	1353.69537	394.74308	-1082.06131	1043.94012	371.41735	-1015.55168	1050.76080	400.16014	-1037.27226	1049.78500	350.19253	-999.45862	821.45416	388.74802	-998.12622	824.70146	345.81123	-955.67276	832.39044	361.43841	-1059.59938	876.16470	741.56639	-1013.52127	890.16678	405.00381	-1022.18727	450.89333	655.56282	-1131.24054	488.56178	694.46434	-1105.53223	486.96701	577.19288	-1002.26097	462.09682	514.51820	-1086.89224	481.66790	419.58939	-1109.99504	479.72504	544.17912	-1100.16556	166.99766	675.02304	-1129.84657	164.38631	607.65377	-1181.41296	156.46148	674.43298	-1064.50806	166.89884	458.49438	-1125.47897	170.41504	423.31062	-1123.80486	174.14261	512.99126 
49	25.300	-252.02444	1054.01657	739.70718	-279.51498	1074.09660	533.96904	-97.66178	1111.74805	473.86978	-59.45911	1092.05406	715.98213	-251.05944	1442.25632	637.95364	-146.14822	1492.94495	689.51813	-248.80405	1675.15091	581.22913	-108.24881	1619.55154	654.99878	-227.66636	1623.31314	741.90018	-167.56918	1440.96344	455.94002	-113.27603	1126.78627	361.14937	-96.87789	1106.47064	416.90300	-185.48710	1133.78906	388.54027	-206.15789	898.84094	335.68317	-243.68460	910.04135	359.56017	-226.38548	902.13966	398.52119	-175.05638	1413.21350	853.04108	-131.31858	1095.23094	843.21228	-205.86630	1110.15533	893.68156	-139.52184	1109.44138	913.42239	-251.49252	849.94858	858.93486	-249.03933	841.47369	904.89433	-202.25304	840.29221	906.45851	-138.04616	919.52644	412.66655	-162.02520	882.04483	778.78792	-270.78699	424.73488	387.08504	-191.91532	461.62266	360.21893	-229.95726	433.36823	475.99537	-214.99397	436.55933	705.80627	-109.03800	462.39601	704.18701	-196.96749	437.96928	614.84779	-193.96212	190.76639	367.11311	-188.76751	183.02549	433.06396	-117.36232	191.38756	382.68940	-142.55495	153.86108	680.33920	-82.85370	164.05180	629.22489	-159.22800	169.82685	610.23041	-954.63074	1029.94186	486.50330	-947.33063	1036.75789	646.28113	-1108.42644	1038.72894	659.13841	-1077.93144	1042.43065	478.37517	-1018.70506	1381.64444	576.54095	-1156.81061	1403.93402	558.85536	-966.95816	1593.02460	604.28978	-1124.35997	1551.73737	663.59650	-1099.02275	1561.74042	501.02654	-1107.34871	1348.62579	749.25018	-1091.08253	1055.66452	782.87025	-1149.79843	1048.68507	755.02243	-1081.37283	1044.76402	728.31505	-1069.78668	809.84863	809.25758	-1026.20995	819.73198	801.22047	-1027.41394	818.64105	763.84384	-1050.58586	1353.62518	394.43169	-1081.67816	1043.88931	371.01219	-1015.25414	1050.65643	400.00477	-1036.74454	1049.71001	349.97772	-999.22348	821.38496	388.77350	-997.87704	824.55780	345.90096	-955.45273	832.22305	361.48682	-1060.03792	876.26884	741.52267	-1013.21617	890.11307	405.02548	-1022.35313	451.12232	655.37056	-1131.34850	488.54931	694.43054	-1105.50377	486.98441	577.15981	-1002.39540	462.06795	514.69349	-1086.82281	481.69613	419.55608	-1109.90685	479.74140	544.11167	-1100.22964	167.02665	675.04456	-1129.82056	164.39190	607.62730	-1181.45340	156.44578	674.38995	-1064.50409	166.91172	458.44898	-1125.44823	170.41920	423.28156	-1123.81325	174.17479	512.99168 
